# xmcd
#
# Track frame offsets: 
#        150
#        13268
#        35853
#        59167
#        93824
#        102316
#        111140
#        130467
#        147504
#        154560
#        175183
#        202105
#        225632
#        259664
#
# Disc length: 3870 seconds
#
# Revision: 0
# Processed by: cddbd v1.5.2PL0 Copyright (c) Steve Scherf et al.
# Submitted via: ExactAudioCopy v1.1
#
DISCID=cc0f1c0e
DTITLE=藤島晃一 - ベスト・通り過ぎれば風の詩
DYEAR=2014
DGENRE=Blues
TTITLE0=こんな夜
TTITLE1=あ〜ぁ 後がない
TTITLE2=COMO
TTITLE3=DELTA
TTITLE4=カンカン
TTITLE5=明日になれば
TTITLE6=ある日の風に吹かれて
TTITLE7=MAURI
TTITLE8=こうろぎくん
TTITLE9=通りすぎれば風の詩
TTITLE10=闇の中で漂うおまえ
TTITLE11=TONBOつり
TTITLE12=小川のせせらぎ ききながら
TTITLE13=DELTA Live Version [live at Nakameguro Gakuya 2012]
EXTD=
EXTT0=
EXTT1=
EXTT2=
EXTT3=
EXTT4=
EXTT5=
EXTT6=
EXTT7=
EXTT8=
EXTT9=
EXTT10=
EXTT11=
EXTT12=
EXTT13=
PLAYORDER=
